# xmcd CD database file
#
# Track frame offsets:
#	150
#	26030
#	46842
#	61615
#	79010
#	100720
#	123045
#	148147
#	177722
#	193022
#	225225
#	242550
#
# Disc length: 3529 seconds
#
# Revision: 0
# Processed by: cddbd v1.4PL0 Copyright (c) Steve Scherf et al.
# Submitted via: CDex 1.50Beta7
#
DISCID=920dc70c
DTITLE=Bubi Chen - Virtuoso
DYEAR=1995
DGENRE=Jazz
TTITLE0=Frog Walk
TTITLE1=Bluesette
TTITLE2=Blue Bossa
TTITLE3=Moody's Mood for Love
TTITLE4=Softly as In A Morning Sunrise
TTITLE5=My Funny Valentine
TTITLE6=KLM
TTITLE7=Body and Soul
TTITLE8=Fly Me to The Moon
TTITLE9=Here's That Rainy Day
TTITLE10=Antonio's Song
TTITLE11=Home
EXTD=YEAR: 1995
EXTT0=
EXTT1=
EXTT2=
EXTT3=
EXTT4=
EXTT5=
EXTT6=
EXTT7=
EXTT8=
EXTT9=
EXTT10=
EXTT11=
PLAYORDER=
